<?xml version="1.0" encoding="utf-8"?>
<!-- Generator: Adobe Illustrator 17.1.0, SVG Export Plug-In . SVG Version: 6.00 Build 0)  -->
<!DOCTYPE svg PUBLIC "-//W3C//DTD SVG 1.1//EN" "http://www.w3.org/Graphics/SVG/1.1/DTD/svg11.dtd">
<svg version="1.1" id="Layer_1" xmlns="http://www.w3.org/2000/svg" xmlns:xlink="http://www.w3.org/1999/xlink" x="0px" y="0px"
	 width="172.19px" height="74.819px" viewBox="0 0 172.19 74.819" enable-background="new 0 0 172.19 74.819" xml:space="preserve">
<g>
	<g>
		<path fill="#04979C" d="M19.328,61.73v9.807c-2.76,1.489-5.339,2.252-8.1,2.252c-7.3,0-10.606-4.468-10.606-12.24
			c0-8.246,5.012-12.059,11.804-12.059c2.47,0,4.286,0.399,6.865,1.598l-1.998,5.23c-1.962-1.562-3.233-2.07-5.121-2.07
			c-3.414,0-5.339,1.925-5.339,7.228c0,5.594,2.07,7.591,5.593,7.591c0.4,0,0.763,0,1.162-0.073V61.73H19.328z"/>
		<path fill="#04979C" d="M40.719,67.324l1.453,4.432c-2.325,1.271-4.431,2.034-7.954,2.034c-4.685,0-9.407-2.506-9.407-9.298
			c0-5.63,4.177-9.081,8.79-9.081c4.94,0,8.644,2.433,8.644,9.48c0,0.399,0,0.799-0.037,1.235H30.767
			c0.618,2.652,2.797,3.196,4.831,3.196C37.16,69.321,39.231,68.523,40.719,67.324z M36.434,62.602
			c0.145-2.36-1.199-3.196-2.652-3.196c-1.961,0-2.869,0.836-3.123,3.196H36.434z"/>
		<path fill="#04979C" d="M54.338,73.789h-5.775V56.319h5.267l0.109,2.579c1.78-2.288,4.068-3.123,6.32-3.123
			c3.124,0,5.847,1.743,5.847,6.211v11.805h-5.775v-9.952c0-2.397-1.09-2.833-2.361-2.833c-1.271,0-2.724,0.799-3.632,1.852V73.789z
			"/>
		<path fill="#04979C" d="M83.903,55.955h5.775v17.471h-5.085l-0.291-2.76c-1.78,2.288-3.959,3.124-6.211,3.124
			c-3.124,0-5.848-1.308-5.848-6.211V55.955h5.775v10.133c0,2.471,0.945,2.906,2.034,2.906c1.271,0,2.833-1.089,3.85-2.288V55.955z"
			/>
		<path fill="#04979C" d="M96.25,69.286h5.339v-8.463H96.25v-4.504h11.115v12.967h5.521v4.504H96.25V69.286z M104.531,47.421
			c1.78,0,3.233,1.453,3.233,3.232c0,1.78-1.453,3.196-3.233,3.196c-1.779,0-3.196-1.416-3.196-3.196
			C101.335,48.874,102.752,47.421,104.531,47.421z"/>
		<path fill="#04979C" d="M125.16,73.789h-5.775V56.319h5.267l0.109,2.579c1.78-2.288,4.068-3.123,6.32-3.123
			c3.124,0,5.847,1.743,5.847,6.211v11.805h-5.775v-9.952c0-2.397-1.09-2.833-2.361-2.833c-1.271,0-2.724,0.799-3.632,1.852V73.789z
			"/>
		<path fill="#04979C" d="M151.818,55.411c6.138,0,9.48,3.777,9.48,9.153c0,5.121-3.487,9.226-9.443,9.226
			c-5.92,0-9.589-3.487-9.589-9.226C142.266,59.442,146.043,55.411,151.818,55.411z M151.673,69.321
			c2.906,0,3.559-1.489,3.559-4.794c0-2.542-0.653-4.649-3.559-4.649c-2.506,0-3.342,1.743-3.342,4.649
			C148.332,67.76,149.421,69.321,151.673,69.321z"/>
	</g>
	<g>
		<path fill="#04979C" d="M0.623,0.757v36.706h36.699V0.757H0.623z M30.237,22.746h-7.607v7.638h-7.266v-7.638h-7.65v-7.25h7.65
			V7.838h7.266v7.658h7.607V22.746z"/>
		<path fill="#04979C" d="M124.073,0.757v36.706h36.7V0.757H124.073z M153.682,22.735h-22.511v-7.254h22.511V22.735z"/>
		<path fill="#04979C" d="M41.774,0.757v36.706h36.7V0.757H41.774z M60.119,27.797c-8.008,0-14.506-8.69-14.506-8.69
			s6.498-8.674,14.506-8.674c8.016,0,14.507,8.674,14.507,8.674S68.134,27.797,60.119,27.797z"/>
		<path fill="#04979C" d="M64.129,19.106c0,2.23-1.79,4.014-4.01,4.014c-2.202,0-4.005-1.784-4.005-4.014
			c0-2.196,1.804-3.992,4.005-3.992C62.339,15.114,64.129,16.91,64.129,19.106z"/>
		<path fill="#04979C" d="M82.922,0.757v36.706h36.693V0.757H82.922z M103.597,24.508l-5.121,5.126l-5.127-5.126l-5.19-5.198
			l5.126-5.126l5.19,5.201l10.776-10.783l5.138,5.121L103.597,24.508z"/>
	</g>
	<g>
		<path fill="#04979C" d="M164.718,1.833h-0.704V0.757h2.537v1.076h-0.704v4.04h-1.129V1.833z M166.738,0.757h1.356l0.505,1.767
			l0.585,2.06l0.598-2.126l0.505-1.701h1.263v5.116h-1.077V3.176l-0.332,1.315l-0.372,1.382h-1.196l-0.398-1.356l-0.466-1.555v2.91
			h-0.97V0.757z"/>
	</g>
</g>
</svg>
